<?xml version="1.0" standalone="no"?>
<!DOCTYPE svg PUBLIC "-//W3C//DTD SVG 20010904//EN"
 "http://www.w3.org/TR/2001/REC-SVG-20010904/DTD/svg10.dtd">
<svg version="1.0" xmlns="http://www.w3.org/2000/svg"
 width="260.000000pt" height="260.000000pt" viewBox="0 0 260.000000 260.000000"
 preserveAspectRatio="xMidYMid meet">
<metadata>
Created by potrace 1.14, written by Peter Selinger 2001-2017
</metadata>
<g transform="translate(0.000000,260.000000) scale(0.100000,-0.100000)"
fill="#000000" stroke="none">
<path d="M248 2422 c-23 -51 -26 -67 -23 -142 5 -105 6 -110 18 -110 6 0 7 -3
4 -7 -8 -7 53 -125 71 -136 6 -4 12 -12 12 -17 0 -13 34 -51 176 -194 l132
-132 7 -74 c13 -147 54 -276 114 -365 l30 -45 -27 -1 c-15 0 -180 0 -367 0
-187 0 -347 -2 -356 -5 -36 -10 -48 -167 -19 -265 l10 -36 181 1 c99 1 185 -2
191 -5 6 -4 3 -12 -7 -20 -9 -8 -43 -38 -75 -68 l-58 -55 36 -39 c21 -22 58
-61 85 -88 26 -26 47 -52 47 -56 0 -5 -51 -59 -114 -121 l-115 -113 42 -52
c42 -51 140 -137 156 -137 5 0 31 21 58 47 27 27 80 76 117 111 l67 62 78 -81
79 -82 81 83 c45 46 81 87 81 91 0 8 -31 45 -120 144 -17 20 -17 22 40 78 32
31 63 57 68 57 5 0 18 -12 27 -28 38 -58 159 -152 187 -144 4 1 20 -3 35 -9
24 -9 133 -15 156 -9 4 2 10 3 15 4 67 18 104 33 142 59 50 35 100 81 100 94
0 4 9 14 20 21 18 11 26 6 82 -48 l62 -61 -77 -77 -77 -77 84 -84 c97 -96 79
-97 182 6 34 35 65 63 68 63 6 0 114 -108 183 -184 23 -25 45 -46 48 -46 3 0
24 12 47 28 52 33 109 93 136 141 l20 36 -45 50 c-24 28 -74 80 -109 116 l-65
66 48 50 c64 67 93 101 93 112 0 7 -56 75 -107 128 -13 13 -23 25 -23 26 0 1
24 3 53 4 107 3 189 28 239 71 10 8 18 12 18 7 0 -15 60 61 81 102 11 23 21
61 22 85 l2 43 -388 2 c-214 0 -391 4 -394 7 -3 3 7 20 21 37 70 83 126 248
126 373 0 64 3 73 25 91 40 32 244 235 237 235 -4 0 -2 4 3 8 37 26 151 212
138 225 -3 4 -1 7 6 7 7 0 11 7 8 15 -4 8 -2 17 3 20 9 6 11 15 11 85 0 69 -2
80 -12 80 -5 0 -8 3 -8 8 3 19 -3 31 -27 55 l-26 26 -215 -218 c-118 -121
-221 -227 -228 -238 -13 -17 -17 -15 -62 32 -26 28 -68 66 -93 86 -48 39 -180
122 -180 114 0 -3 -10 0 -22 7 -13 7 -29 11 -35 10 -7 -2 -13 2 -13 8 0 5 -3
9 -7 9 -5 -1 -10 -1 -13 0 -43 17 -290 17 -307 1 -2 -1 -7 -3 -12 -4 -5 0 -13
-4 -17 -8 -4 -5 -16 -8 -26 -8 -10 0 -18 -4 -18 -8 0 -4 -17 -14 -37 -21 -51
-18 -158 -98 -222 -166 -63 -67 -26 -89 -288 170 -105 105 -204 202 -220 217
l-28 27 -27 -57z m471 -1538 c3 -3 -24 -33 -58 -67 l-64 -61 -58 64 c-33 35
-59 67 -59 70 0 6 233 1 239 -6z m1328 -7 c35 -1 63 -4 63 -7 -1 -3 -26 -32
-56 -65 l-56 -60 -54 60 c-29 33 -54 65 -54 70 0 6 20 9 47 7 27 -2 76 -4 110
-5z"/>
</g>
</svg>
